<svg width="114" height="26" viewBox="0 0 114 26" fill="none" xmlns="http://www.w3.org/2000/svg">
<path d="M0.533333 0.177776C0.366667 0.266666 0.177778 0.433332 0.111111 0.555555C0.0333333 0.688889 0 4.85555 0 13V25.2444L0.377778 25.6222L0.755556 26H11.5C21.3222 26 22.2667 25.9889 22.5556 25.8111C22.7333 25.7111 22.9222 25.5111 22.9889 25.3667C23.0778 25.1778 23.1111 21.4333 23.1111 12.9V0.711111L22.8778 0.455555C22.7556 0.322222 22.5222 0.166666 22.3667 0.0999985C22.2111 0.0444431 17.8333 0 11.4667 0C2.3 0.0111103 0.788889 0.0333328 0.533333 0.177776ZM11.3222 11.4444L16.4556 20.3333L15.5889 21.8333C15.1111 22.6556 14.6778 23.3333 14.6111 23.3333C14.5 23.3333 2.75556 3.02222 2.68889 2.72222C2.65556 2.57778 2.91111 2.55556 4.42222 2.55556H6.2L11.3222 11.4444ZM20.3111 2.73333L20.5556 2.9V12.9667C20.5556 22.1778 20.5444 23.0556 20.3667 23.2444C20.2111 23.4111 20.0111 23.4444 18.9889 23.4444C17.8778 23.4444 17.7778 23.4222 17.6222 23.2C17.4667 22.9778 17.4444 21.8222 17.4444 12.9778C17.4444 1.26667 17.2556 2.55556 18.9778 2.55556C19.7778 2.55556 20.1222 2.6 20.3111 2.73333ZM2.63333 18.1333C2.62222 20.9 2.61111 18.6667 2.61111 13.1667C2.61111 7.66667 2.62222 5.4 2.63333 8.13333C2.65556 10.8556 2.65556 15.3556 2.63333 18.1333ZM5.27778 8.27778C5.43333 8.42222 5.55556 8.67778 5.55556 8.83333C5.55556 8.98889 5.43333 9.24444 5.27778 9.38889C5.03333 9.64444 4.92222 9.66667 4 9.66667C3.2 9.66667 3 9.63333 3 9.5C3 9.37778 3.21111 9.33333 4.03333 9.31111L5.05556 9.27778V8.83333V8.38889L4.06667 8.33333C3.41111 8.3 3.05556 8.23333 3.02222 8.13333C2.98889 8.03333 3.23333 8 4 8C4.92222 8 5.03333 8.02222 5.27778 8.27778ZM5.98889 16.0889C6.01111 22.2556 5.98889 23.3111 5.85556 23.4333C5.65556 23.6 2.64444 23.5556 2.58889 23.3889C2.56667 23.3222 3.12222 23.2889 4.16667 23.3111L5.77778 23.3444V16.0556C5.77778 11.9 5.82222 8.78889 5.87778 8.82222C5.93333 8.85555 5.97778 12.1 5.98889 16.0889ZM5.41111 10.2667C5.37778 10.3667 5.16667 10.4444 4.92222 10.4667C4.52222 10.5 4.5 10.5222 4.46667 10.9111L4.43333 11.3333H4.93333C5.31111 11.3333 5.44444 11.3778 5.44444 11.5C5.44444 11.6333 5.23333 11.6667 4.22222 11.6667H3V11.0889C3 10.7111 3.06667 10.4444 3.18889 10.3111C3.38889 10.0889 3.94444 10.0444 4.05556 10.2333C4.1 10.3 4.21111 10.3111 4.32222 10.2667C4.53333 10.1778 5.36667 10.0333 5.43333 10.0778C5.45556 10.0889 5.44444 10.1778 5.41111 10.2667ZM5.23333 12.4333C5.95556 13.1556 5.37778 14.1111 4.22222 14.1111C3.24444 14.1111 2.67778 13.4 3.05556 12.6667C3.27778 12.2444 3.54444 12.1222 4.31111 12.1222C4.82222 12.1111 4.95556 12.1556 5.23333 12.4333ZM3.33333 14.6667V15H4.38889C5.25556 15 5.44444 15.0333 5.44444 15.1667C5.44444 15.3 5.25556 15.3333 4.38889 15.3333H3.33333V15.6778C3.33333 15.9 3.28889 16 3.2 15.9778C3.1 15.9444 3.04444 15.6444 3.02222 15.1333C3 14.4667 3.02222 14.3333 3.16667 14.3333C3.27778 14.3333 3.33333 14.4444 3.33333 14.6667ZM5.44444 16.3889C5.44444 16.5222 5.23333 16.5556 4.22222 16.5556C3.21111 16.5556 3 16.5222 3 16.3889C3 16.2556 3.21111 16.2222 4.22222 16.2222C5.23333 16.2222 5.44444 16.2556 5.44444 16.3889ZM5.01111 17.1222C5.63333 17.4444 5.7 18.3778 5.14444 18.7444C4.68889 19.0444 3.64444 19.0111 3.28889 18.6778C2.26667 17.7222 3.7 16.4111 5.01111 17.1222ZM5.44444 19.5C5.44444 19.6 5.27778 19.6667 4.97778 19.6889C4.51111 19.7222 4.5 19.7333 4.46667 20.1333L4.43333 20.5556H4.93333C5.31111 20.5556 5.44444 20.6 5.44444 20.7222C5.44444 20.8556 5.23333 20.8889 4.22222 20.8889H3V20.3111C3 19.4556 3.12222 19.3778 4.38889 19.3667C5.2 19.3556 5.44444 19.3889 5.44444 19.5ZM3.77778 21.4444C3.77778 21.5 3.68889 21.6 3.56667 21.6556C3.31111 21.8 3.22222 22.0889 3.34444 22.4111C3.53333 22.9333 4.84444 22.9444 5.12222 22.4222C5.27778 22.1333 5.11111 21.7111 4.78889 21.6111C4.48889 21.5222 4.48889 21.3333 4.77778 21.3333C5.08889 21.3333 5.55556 21.8222 5.55556 22.1444C5.55556 23.1 3.85556 23.5444 3.16667 22.7778C2.86667 22.4444 2.88889 21.8 3.21111 21.5444C3.48889 21.3222 3.77778 21.2667 3.77778 21.4444Z" fill="white"/>
<path d="M3.41115 10.511C3.36671 10.5555 3.33337 10.7555 3.33337 10.9666C3.33337 11.311 3.3556 11.3333 3.73337 11.3333C4.12226 11.3333 4.12226 11.3221 4.08893 10.911C4.0556 10.5666 4.01115 10.4999 3.77782 10.4666C3.62226 10.4444 3.4556 10.4666 3.41115 10.511Z" fill="white"/>
<path d="M3.44438 12.6888C3.1555 12.9999 3.16661 13.1777 3.49994 13.4999C4.03327 14.0444 5.21105 13.7555 5.22216 13.0777C5.22216 12.4666 3.92216 12.1777 3.44438 12.6888Z" fill="white"/>
<path d="M3.69997 17.389C2.74441 17.8001 3.45552 18.8556 4.54441 18.6112C5.32219 18.4445 5.4333 17.6778 4.72219 17.3778C4.25552 17.189 4.15552 17.189 3.69997 17.389Z" fill="white"/>
<path d="M3.41115 19.7334C3.36671 19.7779 3.33337 19.9779 3.33337 20.189C3.33337 20.5334 3.3556 20.5557 3.73337 20.5557C4.12226 20.5557 4.12226 20.5446 4.08893 20.1334C4.0556 19.789 4.01115 19.7223 3.77782 19.689C3.62226 19.6668 3.4556 19.689 3.41115 19.7334Z" fill="white"/>
<path d="M29.5335 2.76666C28.3668 3.14444 27.3668 3.93333 26.7335 4.98888C25.3335 7.29999 25.389 11.2 26.8557 13.4222C27.589 14.5111 28.7224 15.2889 30.0113 15.5667C30.8779 15.7555 32.6002 15.6444 33.3668 15.3444C34.8668 14.7555 35.9002 13.4667 36.1446 11.8555L36.2113 11.4444H35.389H34.5779L34.5002 11.8778C34.4557 12.1222 34.2668 12.5778 34.0779 12.9111C33.7779 13.4 33.6002 13.5667 32.989 13.8778C32.3446 14.2 32.1335 14.2444 31.4335 14.2444C30.9779 14.2555 30.4113 14.2 30.1557 14.1222C29.0446 13.8222 28.089 12.8 27.6446 11.4333C27.4446 10.8444 27.4113 10.4555 27.4113 9.1111C27.4113 7.25555 27.589 6.48888 28.2779 5.48888C29.9002 3.13333 33.789 3.5111 34.4779 6.07777L34.6002 6.55555H35.4002H36.189L36.1002 6.06666C35.8113 4.53333 34.6335 3.27777 32.989 2.76666C32.089 2.48888 30.4113 2.48888 29.5335 2.76666Z" fill="white"/>
<path d="M54.2888 2.67786C53.4776 2.87786 52.3554 3.55564 51.7332 4.23341C50.5665 5.50008 50.0665 6.94453 50.0665 9.11119C50.0665 11.3334 50.5888 12.8001 51.811 14.0445C52.911 15.1667 54.1332 15.6667 55.7776 15.6667C57.411 15.6667 58.6443 15.1667 59.7221 14.0667C60.9332 12.8334 61.4776 11.3112 61.4776 9.11119C61.4888 6.18897 60.3999 4.14453 58.2665 3.08897C57.3332 2.63341 57.2999 2.6223 56.0221 2.58897C55.311 2.57786 54.5332 2.61119 54.2888 2.67786ZM57.0221 4.11119C57.6999 4.30008 58.4665 4.91119 58.9665 5.64453C59.6665 6.67786 59.8221 7.33341 59.8332 9.11119C59.8332 10.389 59.7999 10.7223 59.5776 11.3556C58.8665 13.4112 57.1221 14.5445 55.1554 14.2223C53.9332 14.0223 52.9332 13.289 52.311 12.1445C51.4554 10.5779 51.4443 7.75564 52.2888 6.10008C52.5999 5.46675 53.3554 4.66675 53.8776 4.40008C54.7999 3.91119 55.9554 3.81119 57.0221 4.11119Z" fill="white"/>
<path d="M81.9776 2.81122C80.0776 3.46678 78.7443 5.03345 78.2665 7.20011C78.0109 8.33345 78.0998 10.6557 78.4221 11.6779C78.8665 13.0223 79.9776 14.4334 81.1109 15.0446C82.2332 15.6557 84.0332 15.8446 85.3887 15.5001C87.1665 15.0334 88.6554 13.4668 89.2887 11.3779C89.5776 10.4446 89.5776 7.77789 89.2887 6.84456C88.8332 5.32234 87.7998 3.90011 86.6887 3.25567C85.4221 2.51122 83.4221 2.32234 81.9776 2.81122ZM85.5221 4.34456C86.6665 4.889 87.4554 5.989 87.7665 7.42234C87.9221 8.17789 87.9221 10.0446 87.7665 10.8001C87.3776 12.6557 86.1332 13.9446 84.4665 14.2112C82.6554 14.5001 81.0332 13.6001 80.2109 11.8557C79.5221 10.3557 79.5221 7.87789 80.2221 6.36678C81.2221 4.21122 83.4776 3.35567 85.5221 4.34456Z" fill="white"/>
<path d="M38.4444 9.09989V15.4443H39.2222H40V12.7221V9.99989H41.6444C43.4333 9.99989 43.8777 10.0777 44.4444 10.4999C45.1333 11.011 45.4222 11.5221 46.0777 13.511L46.7222 15.4443H47.5777H48.4222L47.7666 13.5554C46.8555 10.911 46.5222 10.3332 45.6777 9.88878C45.3222 9.711 45.3 9.67767 45.5 9.611C46.6222 9.23323 47.2111 8.78878 47.6444 7.95545C47.9111 7.45545 47.9444 7.26656 47.9444 6.27767C47.9444 5.28878 47.9111 5.09989 47.6333 4.53323C47.2888 3.82211 46.6666 3.22211 46.0333 2.99989C45.7222 2.88878 44.6777 2.83323 42.0333 2.811L38.4444 2.76656V9.09989ZM44.9444 4.23323C45.9111 4.49989 46.5444 5.56656 46.3888 6.67767C46.2888 7.411 45.9444 7.88878 45.2777 8.22211C44.7444 8.48878 44.6222 8.49989 42.3666 8.53323L40 8.57767V6.34434V4.111H42.2555C43.5444 4.111 44.6888 4.16656 44.9444 4.23323Z" fill="white"/>
<path d="M63.8892 9.111V15.4443H64.6669H65.4447V9.111V2.77767H64.6669H63.8892V9.111Z" fill="white"/>
<path d="M67.3334 3.49989V4.22211H69.3334H71.3334V9.83323V15.4443H72.1112H72.8889V9.83323V4.22211H74.8889H76.8889V3.49989V2.77767H72.1112H67.3334V3.49989Z" fill="white"/>
<path d="M91.6665 9.09989V15.4443H92.4998H93.3443L93.3332 12.7443L93.3221 10.0554L94.7998 10.0221C96.6887 9.97767 97.2665 10.0999 97.9443 10.6888C98.5776 11.2554 98.7221 11.5332 99.4332 13.6888L100.022 15.4443H100.844C101.3 15.4443 101.667 15.3999 101.667 15.3554C101.667 15.1777 100.411 11.711 100.2 11.2777C99.8443 10.5888 99.5332 10.2221 99.0554 9.94434C98.6776 9.711 98.6443 9.66656 98.8332 9.611C99.8887 9.26656 100.578 8.68878 101.011 7.79989C101.211 7.38878 101.255 7.08878 101.267 6.33323C101.267 4.76656 100.7 3.68878 99.5776 3.14434L98.9443 2.83323L95.3109 2.79989L91.6665 2.76656V9.09989ZM98.3776 4.311C98.7443 4.43323 99.0332 4.64434 99.2665 4.92211C99.5887 5.33323 99.6109 5.411 99.6109 6.32211C99.6109 7.211 99.5887 7.33323 99.3109 7.68878C98.7776 8.39989 98.2887 8.49989 95.6443 8.49989C94.3665 8.49989 93.3332 8.46656 93.3332 8.411C93.3332 8.36656 93.3332 7.37767 93.3332 6.22211V4.111H95.5887C97.4109 4.12211 97.9332 4.15545 98.3776 4.311Z" fill="white"/>
<path d="M103.889 7.10004C103.889 12.5334 104 13.2667 104.955 14.3334C105.911 15.3889 106.911 15.7223 108.889 15.6445C111.333 15.5445 112.544 14.6778 113.066 12.6667C113.222 12.0667 113.255 11.1778 113.3 7.3556L113.355 2.77782H112.533H111.722L111.755 6.18893C111.789 9.57782 111.678 11.6667 111.444 12.4778C111.055 13.8112 109.333 14.5223 107.555 14.0667C106.611 13.8223 106.122 13.4223 105.778 12.6L105.5 11.9445L105.466 7.3556L105.433 2.77782H104.655H103.889V7.10004Z" fill="white"/>
<path d="M25.4444 19.2222V21.4444L25.9222 21.4555C26.1777 21.4555 26.6444 21.4666 26.9666 21.4778C27.3888 21.5 27.5888 21.4444 27.7777 21.2778C28.5666 20.5778 28.5 18.8222 27.6777 18.4C27.2555 18.1778 26.6666 18.1778 26.3777 18.3889C26.2666 18.4778 26.1333 18.5555 26.0888 18.5555C26.0333 18.5555 26 18.2 26 17.7778C26 17.0222 25.9888 17 25.7222 17H25.4444V19.2222ZM27.5111 18.9C27.8 19.2222 27.8111 20.3778 27.5222 20.8111C27.2888 21.1666 26.7222 21.2222 26.2777 20.9333C26.0222 20.7666 26 20.6778 26 19.9778C26 19.3111 26.0333 19.1778 26.2777 18.9444C26.6222 18.5889 27.2111 18.5666 27.5111 18.9Z" fill="white"/>
<path d="M36.2223 17.1556C36.2223 17.4001 36.7667 17.7778 37.1112 17.7778C37.4556 17.7778 38.0001 17.4001 38.0001 17.1556C38.0001 16.9334 37.7445 16.9667 37.5223 17.2223C37.4223 17.3445 37.2334 17.4445 37.1112 17.4445C36.989 17.4445 36.8001 17.3445 36.7001 17.2223C36.4778 16.9667 36.2223 16.9334 36.2223 17.1556Z" fill="white"/>
<path d="M41.5555 17.1556C41.5555 17.4001 42.1 17.7778 42.4444 17.7778C42.7889 17.7778 43.3333 17.4001 43.3333 17.1556C43.3333 16.9334 43.0778 16.9667 42.8555 17.2223C42.7555 17.3445 42.5778 17.4445 42.4667 17.4445C42.3444 17.4445 42.1667 17.3445 42.0555 17.2223C41.8222 16.9667 41.5555 16.9334 41.5555 17.1556Z" fill="white"/>
<path d="M46.8223 17.1555C46.7112 17.4444 46.8667 17.6889 47.1334 17.6444C47.3223 17.6222 47.389 17.5333 47.389 17.3333C47.389 17.1333 47.3223 17.0444 47.1334 17.0222C46.989 17 46.8556 17.0555 46.8223 17.1555Z" fill="white"/>
<path d="M48.3221 17.0444C48.2444 17.4666 48.2999 17.6111 48.5555 17.6111C48.7777 17.6111 48.8333 17.5555 48.8333 17.3333C48.8333 17.1333 48.7666 17.0444 48.5888 17.0222C48.4444 17 48.3333 17.0111 48.3221 17.0444Z" fill="white"/>
<path d="M51.4444 17.3334C51.4444 17.6112 51.4888 17.6667 51.7222 17.6667C51.9555 17.6667 52 17.6112 52 17.3334C52 17.0556 51.9555 17.0001 51.7222 17.0001C51.4888 17.0001 51.4444 17.0556 51.4444 17.3334Z" fill="white"/>
<path d="M58.222 19.2221V21.4443H58.4998H58.7775V19.2221V16.9999H58.4998H58.222V19.2221Z" fill="white"/>
<path d="M59.6667 17.3334C59.6667 17.6112 59.7111 17.6667 59.9445 17.6667C60.1778 17.6667 60.2222 17.6112 60.2222 17.3334C60.2222 17.0556 60.1778 17.0001 59.9445 17.0001C59.7111 17.0001 59.6667 17.0556 59.6667 17.3334Z" fill="white"/>
<path d="M72.111 17.7222C72.111 18.3889 72.0888 18.4555 71.9221 18.3778C71.811 18.3333 71.4999 18.2778 71.2221 18.2444C70.8221 18.2111 70.6554 18.2555 70.3999 18.4555C69.5443 19.1333 69.5776 20.9444 70.4554 21.3889C70.8665 21.6111 71.4443 21.6 71.7776 21.3667C71.9665 21.2333 72.0554 21.2222 72.0888 21.3111C72.111 21.3889 72.2554 21.4444 72.3999 21.4444H72.6665L72.6443 19.2444C72.611 17.0667 72.611 17.0555 72.3665 17.0222C72.1221 16.9889 72.111 17.0222 72.111 17.7222ZM71.8665 18.8444C72.0776 18.9889 72.111 19.1111 72.111 19.7889C72.111 20.4889 72.0776 20.5889 71.8221 20.8333C71.4443 21.1778 70.8888 21.2 70.611 20.8889C70.2888 20.5333 70.2554 19.4889 70.5443 19.0222C70.7332 18.7222 70.8443 18.6667 71.1999 18.6667C71.4221 18.6667 71.7332 18.7444 71.8665 18.8444Z" fill="white"/>
<path d="M80.3334 17.3334C80.3334 17.6112 80.3778 17.6667 80.6112 17.6667C80.8445 17.6667 80.8889 17.6112 80.8889 17.3334C80.8889 17.0556 80.8445 17.0001 80.6112 17.0001C80.3778 17.0001 80.3334 17.0556 80.3334 17.3334Z" fill="white"/>
<path d="M39.4444 17.8221C39.4444 18.0999 39.3889 18.211 39.2222 18.2555C39.1 18.2888 39 18.3888 39 18.4888C39 18.5888 39.0889 18.6666 39.2222 18.6666C39.4333 18.6666 39.4444 18.7443 39.4444 19.9443C39.4444 21.1666 39.4556 21.2221 39.7111 21.3888C40.0556 21.611 40.6 21.5666 40.6444 21.311C40.6667 21.1777 40.5889 21.1221 40.3667 21.0888L40.0556 21.0555L40.0222 19.8555L39.9889 18.6666H40.2778C40.6556 18.6666 40.6222 18.2999 40.2444 18.2443C40.0444 18.211 40 18.1332 40 17.8221C40 17.4888 39.9667 17.4443 39.7222 17.4443C39.4778 17.4443 39.4444 17.4888 39.4444 17.8221Z" fill="white"/>
<path d="M53.0001 17.8222C53.0001 18.0999 52.9446 18.2111 52.7779 18.2555C52.6557 18.2888 52.5557 18.3888 52.5557 18.4888C52.5557 18.5888 52.6446 18.6666 52.7779 18.6666C52.989 18.6666 53.0001 18.7444 53.0001 19.9444C53.0001 21.1666 53.0112 21.2222 53.2668 21.3888C53.6001 21.6111 54.1668 21.5666 54.1668 21.3333C54.1668 21.2444 54.0446 21.1444 53.889 21.1111C53.6112 21.0555 53.6112 21.0333 53.5779 19.8555L53.5446 18.6666H53.8334C54.2112 18.6666 54.1779 18.2999 53.8001 18.2444C53.6001 18.2111 53.5557 18.1333 53.5557 17.8222C53.5557 17.4888 53.5223 17.4444 53.2779 17.4444C53.0334 17.4444 53.0001 17.4888 53.0001 17.8222Z" fill="white"/>
<path d="M29.0443 18.389C29.0109 18.4779 28.9998 19.1001 29.0221 19.7779C29.0554 20.9779 29.0665 21.0334 29.3665 21.289C29.7665 21.6334 30.4109 21.6445 30.8221 21.3223C31.0554 21.1334 31.1109 21.1223 31.1109 21.2667C31.1109 21.3779 31.2109 21.4445 31.3887 21.4445H31.6665V19.8223C31.6665 18.2112 31.6665 18.2112 31.4221 18.2445C31.1776 18.2779 31.1665 18.3334 31.1332 19.4667C31.0998 20.6001 31.0887 20.6667 30.8109 20.889C30.4332 21.189 29.9443 21.1779 29.7332 20.8667C29.5998 20.6779 29.5554 20.3223 29.5554 19.4223C29.5554 18.289 29.5443 18.2223 29.3332 18.2223C29.2109 18.2223 29.0776 18.3001 29.0443 18.389Z" fill="white"/>
<path d="M33.1003 18.4112C32.5669 18.7445 32.378 19.2667 32.4336 20.3112C32.4447 20.5445 32.5669 20.8001 32.8114 21.0667C33.1225 21.4112 33.278 21.4778 33.7336 21.5223C34.5225 21.6001 35.2225 21.2001 35.2225 20.6778C35.2225 20.4445 34.7558 20.5556 34.5336 20.8334C34.2669 21.1778 33.7003 21.2112 33.3225 20.9001C33.0891 20.7112 33.0558 20.589 33.0558 19.9112C33.0558 18.9556 33.2558 18.6667 33.9003 18.6667C34.2891 18.6667 34.6669 18.889 34.6669 19.1223C34.6669 19.1778 34.7891 19.2223 34.9447 19.2223C35.2447 19.2223 35.2891 19.1112 35.1114 18.7667C34.8336 18.2556 33.678 18.0445 33.1003 18.4112Z" fill="white"/>
<path d="M36.1555 18.4333C35.9666 18.5444 35.7777 18.7444 35.7444 18.8777C35.7 19.0666 35.7333 19.1111 35.9889 19.1111C36.1555 19.1111 36.3333 19.0222 36.4222 18.8889C36.5222 18.7222 36.6777 18.6666 37.0889 18.6666C37.7 18.6666 37.8889 18.8 37.8889 19.2444C37.8889 19.5444 37.8666 19.5555 37.3666 19.5555C36.2111 19.5555 35.6222 19.9222 35.6222 20.6333C35.6222 21.4222 36.6444 21.8333 37.5 21.3777C37.7111 21.2666 37.8444 21.2555 37.8666 21.3222C37.8889 21.3889 38.0333 21.4444 38.1777 21.4444C38.4444 21.4444 38.4444 21.4444 38.4444 20.2222C38.4444 18.9 38.3444 18.5333 37.9222 18.3444C37.4889 18.1444 36.5444 18.2 36.1555 18.4333ZM37.8889 20.3333C37.8889 20.7111 37.8444 20.8 37.5555 20.9444C37.1666 21.1444 36.5444 21.1666 36.3555 20.9777C36.1666 20.7889 36.1889 20.3889 36.4222 20.2C36.6444 19.9889 36.9111 19.9222 37.4777 19.9C37.8889 19.8889 37.8889 19.8889 37.8889 20.3333Z" fill="white"/>
<path d="M41.4891 18.4334C41.3002 18.5445 41.1113 18.7445 41.078 18.8779C41.0336 19.0668 41.0669 19.1112 41.3224 19.1112C41.4891 19.1112 41.6669 19.0223 41.7558 18.889C41.8558 18.7223 42.0113 18.6668 42.4224 18.6668C43.0336 18.6668 43.2224 18.8001 43.2224 19.2445C43.2224 19.5445 43.2002 19.5557 42.7002 19.5557C41.5558 19.5557 40.9891 19.9001 40.9669 20.6223C40.9447 21.4223 41.8669 21.8001 42.8336 21.4001C43.0447 21.3112 43.2224 21.2779 43.2224 21.3445C43.2224 21.4001 43.3447 21.4445 43.5002 21.4445H43.778V20.2223C43.778 18.9001 43.678 18.5334 43.2558 18.3445C42.8224 18.1445 41.878 18.2001 41.4891 18.4334ZM43.2224 20.3334C43.2224 20.7112 43.178 20.8001 42.8891 20.9445C42.5002 21.1445 41.878 21.1668 41.6891 20.9779C41.5002 20.789 41.5224 20.389 41.7558 20.2001C41.978 19.989 42.2447 19.9223 42.8113 19.9001C43.2224 19.889 43.2224 19.889 43.2224 20.3334Z" fill="white"/>
<path d="M44.7445 18.2999C44.7001 18.3332 44.6667 19.0666 44.6667 19.911V21.4443H44.9445C45.2223 21.4443 45.2223 21.4443 45.2223 20.3554C45.2223 19.0888 45.3112 18.8888 45.9556 18.7888C46.289 18.7332 46.4001 18.6666 46.4223 18.4666C46.4556 18.2666 46.4112 18.2221 46.1334 18.2221C45.9556 18.2221 45.6779 18.3221 45.5112 18.4554L45.2223 18.6777V18.4554C45.2223 18.2332 44.9112 18.1221 44.7445 18.2999Z" fill="white"/>
<path d="M46.8554 18.2888C46.8109 18.3332 46.7776 19.0666 46.7776 19.911V21.4443H47.1109H47.4554L47.422 19.8554C47.3887 18.3666 47.3776 18.2777 47.1665 18.2443C47.0331 18.2221 46.8998 18.2443 46.8554 18.2888Z" fill="white"/>
<path d="M48.3333 18.2443C48.3333 18.2666 48.311 18.9888 48.2999 19.8666L48.2777 21.4443H48.5888H48.8999L48.8666 19.8554C48.8333 18.311 48.8222 18.2777 48.5888 18.2443C48.4444 18.2221 48.3333 18.2221 48.3333 18.2443Z" fill="white"/>
<path d="M51.4444 19.8332V21.4443H51.7222H52V19.8332V18.2221H51.7222H51.4444V19.8332Z" fill="white"/>
<path d="M55.0444 18.4333C54.6 18.7 54.4667 19.1111 54.8222 19.1111C54.9667 19.1111 55.1667 19.0111 55.2778 18.8889C55.4222 18.7222 55.6222 18.6666 56.0111 18.6666C56.5778 18.6666 56.7778 18.8333 56.7778 19.3222C56.7778 19.5222 56.7111 19.5555 56.2556 19.5555C55.1 19.5555 54.5111 19.9222 54.5111 20.6333C54.5111 21.4222 55.5333 21.8333 56.3889 21.3777C56.6 21.2666 56.7333 21.2555 56.7556 21.3222C56.7778 21.3889 56.9222 21.4444 57.0667 21.4444C57.3333 21.4444 57.3333 21.4444 57.3333 20.2222C57.3333 18.9 57.2333 18.5333 56.8111 18.3444C56.3778 18.1444 55.4333 18.2 55.0444 18.4333ZM56.7778 20.2444C56.7778 20.4444 56.7333 20.6666 56.6889 20.7333C56.4556 21.0889 55.5111 21.2444 55.2444 20.9777C55.0556 20.7889 55.0778 20.3889 55.3111 20.2C55.5333 19.9889 55.8 19.9222 56.3667 19.9C56.7556 19.8889 56.7778 19.9 56.7778 20.2444Z" fill="white"/>
<path d="M59.7445 18.2999C59.7 18.3332 59.6667 19.0666 59.6667 19.911V21.4443H59.9445H60.2222V19.8332C60.2222 18.3443 60.2111 18.2221 60.0222 18.2221C59.9111 18.2221 59.7778 18.2554 59.7445 18.2999Z" fill="white"/>
<path d="M61.611 18.3555C61.3332 18.5 61.111 18.7778 61.111 18.9667C61.111 19.1889 61.5999 19.1333 61.7554 18.8889C61.8554 18.7222 62.011 18.6667 62.4221 18.6667C63.0332 18.6667 63.2221 18.8 63.2221 19.2444C63.2221 19.5444 63.1999 19.5555 62.6665 19.5555C62.0221 19.5555 61.2665 19.8333 61.111 20.1222C60.9887 20.3444 60.9665 20.7889 61.0665 21.0555C61.2443 21.5111 62.2776 21.7 62.8887 21.3889C63.0776 21.2889 63.2221 21.2667 63.2221 21.3333C63.2221 21.3889 63.3554 21.4444 63.5332 21.4444H63.8332L63.7999 20.2555C63.7665 18.7333 63.7332 18.6 63.3332 18.3889C62.9554 18.2 61.9332 18.1778 61.611 18.3555ZM63.2221 20.3222C63.2221 20.6555 63.1665 20.7889 62.9443 20.9333C62.611 21.1555 61.8554 21.1667 61.6665 20.9555C61.2887 20.5 61.9443 19.8889 62.811 19.8889C63.211 19.8889 63.2221 19.9 63.2221 20.3222Z" fill="white"/>
<path d="M64.7443 18.2888C64.6998 18.3332 64.6665 19.0666 64.6665 19.911V21.4443H65.0109H65.3443L65.3221 20.311C65.2998 19.211 65.3109 19.1777 65.5998 18.9221C65.9443 18.6332 66.4665 18.5888 66.6665 18.8332C66.7554 18.9443 66.7998 19.3999 66.7887 20.2221L66.7665 21.4443H67.1109H67.4443V20.411C67.4443 19.211 67.3109 18.6221 66.9665 18.3888C66.6665 18.1777 66.0332 18.1777 65.6665 18.3888C65.3221 18.5888 65.2109 18.5888 65.2554 18.4221C65.2776 18.2666 64.8665 18.1666 64.7443 18.2888Z" fill="white"/>
<path d="M74.022 18.4444C73.0553 19.0333 73.122 20.8555 74.1108 21.3667C74.3886 21.5111 74.6664 21.5555 75.0997 21.5222C75.6108 21.4889 75.7553 21.4222 76.022 21.1222C76.1886 20.9333 76.3331 20.7222 76.3331 20.6667C76.3331 20.4555 75.8553 20.5555 75.5997 20.8333C75.0775 21.4 74.1442 21.1 73.9442 20.3L73.8664 20H75.1664H76.4664L76.3886 19.5889C76.2775 18.9778 76.0331 18.5778 75.6664 18.3889C75.2108 18.1555 74.4664 18.1778 74.022 18.4444ZM75.5442 18.9555C75.9553 19.4778 75.8775 19.5555 74.8442 19.5555C73.9775 19.5555 73.9108 19.5444 73.9664 19.3444C74.1442 18.6444 75.1108 18.4111 75.5442 18.9555Z" fill="white"/>
<path d="M77.2998 18.4556C77.1443 18.6 76.9776 18.8556 76.9332 19.0222C76.8443 19.4222 77.2554 19.8333 77.8998 20C78.7776 20.2222 78.9998 20.3444 78.9998 20.6C78.9998 20.9556 78.7887 21.1111 78.2998 21.1111C77.7998 21.1111 77.4443 20.9444 77.4443 20.7222C77.4443 20.6222 77.3332 20.5556 77.1665 20.5556C76.811 20.5556 76.811 20.7778 77.1554 21.1889C77.3998 21.4778 77.4887 21.5 78.1998 21.5C78.8776 21.5 79.0221 21.4667 79.2665 21.2333C79.4776 21.0333 79.5554 20.8444 79.5554 20.5444C79.5554 20.0222 79.3443 19.8556 78.3221 19.5556C77.911 19.4333 77.5554 19.2556 77.511 19.1667C77.3332 18.7 78.5221 18.4444 78.7998 18.8889C78.9776 19.1778 79.4443 19.1889 79.4443 18.9111C79.4443 18.5222 79.0332 18.2889 78.2887 18.2444C77.6776 18.2 77.5554 18.2333 77.2998 18.4556Z" fill="white"/>
<path d="M80.3334 19.8221V21.4443H80.6112H80.9L80.8667 19.8554C80.8334 18.311 80.8223 18.2777 80.5889 18.2443C80.3334 18.211 80.3334 18.211 80.3334 19.8221Z" fill="white"/>
<path d="M82.1666 18.4667C81.3222 19.1334 81.3666 20.9445 82.2333 21.3889C82.6333 21.6001 83.2333 21.6001 83.5111 21.3889C83.6222 21.3001 83.7666 21.2223 83.8111 21.2223C83.9666 21.2223 83.7666 21.9334 83.5444 22.1556C83.2555 22.4667 82.5888 22.4556 82.3333 22.1334C82.1333 21.8889 81.6666 21.7889 81.6666 21.9889C81.6666 22.4556 82.2 22.7778 82.9666 22.7778C83.6222 22.7778 84.1777 22.4667 84.3 22.0334C84.3555 21.8667 84.3888 20.9445 84.3888 20.0001C84.3888 18.4112 84.3777 18.2778 84.1777 18.2445C84.0666 18.2223 83.9333 18.2556 83.8888 18.3334C83.8222 18.4334 83.7444 18.4334 83.5777 18.3445C83.1888 18.1445 82.5111 18.2001 82.1666 18.4667ZM83.6444 18.8445C83.8555 18.9889 83.8888 19.1112 83.8888 19.7889C83.8888 20.4889 83.8555 20.5889 83.6 20.8334C83.2222 21.1778 82.6666 21.2001 82.3888 20.8889C82.0666 20.5334 82.0333 19.4889 82.3222 19.0223C82.5111 18.7223 82.6222 18.6667 82.9777 18.6667C83.2 18.6667 83.5111 18.7445 83.6444 18.8445Z" fill="white"/>
<path d="M85.3333 19.8332V21.4443H85.611H85.8888V20.2888C85.8888 19.1666 85.8999 19.1221 86.1777 18.8999C86.5333 18.6221 87.0221 18.5999 87.2666 18.8443C87.411 18.9777 87.4444 19.2777 87.4444 20.2332V21.4443H87.7333H88.0221L87.9777 20.0999C87.9444 18.7888 87.9333 18.7554 87.6333 18.4888C87.2444 18.1554 86.5888 18.1332 86.1888 18.4443C85.911 18.6666 85.911 18.6666 85.8555 18.4443C85.8221 18.311 85.6999 18.2221 85.5666 18.2221C85.3444 18.2221 85.3333 18.2777 85.3333 19.8332Z" fill="white"/>
</svg>
