<svg width="114" height="114" viewBox="0 0 114 114" fill="none" xmlns="http://www.w3.org/2000/svg">
<path d="M72.7096 54.47C74.013 54.47 75.0696 53.4134 75.0696 52.11C75.0696 50.8066 74.013 49.75 72.7096 49.75C71.4062 49.75 70.3496 50.8066 70.3496 52.11C70.3496 53.4134 71.4062 54.47 72.7096 54.47Z" fill="#1D1D1B"/>
<path d="M93.9897 34.26H19.3997C17.7597 34.26 16.4297 35.59 16.4297 37.23V76.15C16.4297 77.79 17.7597 79.12 19.3997 79.12H93.9897V79.13C95.6297 79.13 96.9597 77.8 96.9597 76.16V37.23C96.9597 35.59 95.6297 34.26 93.9897 34.26ZM93.9597 76.12L19.4397 76.15L19.4337 68.37H51.2897V65.37H19.4317L19.4257 58.19H51.2897V55.19H19.4237L19.4187 48.59H51.2897V45.59H19.4157L19.4097 37.26L93.9597 37.23V76.12Z" fill="#1D1D1B"/>
<path d="M87.9098 70.66H57.5098V42.72H87.9098V70.66ZM60.5098 67.66H84.9098V45.72H60.5098V67.66Z" fill="#1D1D1B"/>
</svg>
