<svg width="114" height="114" viewBox="0 0 114 114" fill="none" xmlns="http://www.w3.org/2000/svg">
<path d="M66.9298 41.03C68.1062 41.03 69.0598 40.0764 69.0598 38.9C69.0598 37.7237 68.1062 36.77 66.9298 36.77C65.7534 36.77 64.7998 37.7237 64.7998 38.9C64.7998 40.0764 65.7534 41.03 66.9298 41.03Z" fill="#1D1D1B"/>
<path d="M56.6896 41.03C57.8659 41.03 58.8196 40.0764 58.8196 38.9C58.8196 37.7237 57.8659 36.77 56.6896 36.77C55.5132 36.77 54.5596 37.7237 54.5596 38.9C54.5596 40.0764 55.5132 41.03 56.6896 41.03Z" fill="#1D1D1B"/>
<path d="M46.4503 41.03C47.6267 41.03 48.5803 40.0764 48.5803 38.9C48.5803 37.7237 47.6267 36.77 46.4503 36.77C45.2739 36.77 44.3203 37.7237 44.3203 38.9C44.3203 40.0764 45.2739 41.03 46.4503 41.03Z" fill="#1D1D1B"/>
<path d="M81.1403 84.3098H32.2403C30.4903 84.3098 29.0703 82.8898 29.0703 81.1398V32.2398C29.0703 30.4898 30.4903 29.0698 32.2403 29.0698H81.1403C82.8903 29.0698 84.3103 30.4898 84.3103 32.2398V81.1398C84.3103 82.8898 82.8903 84.3098 81.1403 84.3098ZM32.2403 32.0798C32.1503 32.0798 32.0703 32.1498 32.0703 32.2498V81.1498C32.0703 81.2398 32.1403 81.3198 32.2403 81.3198H81.1403C81.2303 81.3198 81.3103 81.2498 81.3103 81.1498V32.2398C81.3103 32.1498 81.2403 32.0698 81.1403 32.0698H32.2403V32.0798Z" fill="#1D1D1B"/>
<path d="M76.4404 75.5901H36.9404V46.3701H76.4404V75.5901ZM39.9404 72.5901H73.4404V49.3701H39.9404V72.5901Z" fill="#1D1D1B"/>
</svg>
