<svg width="114" height="114" viewBox="0 0 114 114" fill="none" xmlns="http://www.w3.org/2000/svg">
<path d="M54.9799 82.2801C54.3499 80.9901 53.6699 79.6201 53.6699 77.0001C53.6699 74.3801 54.3799 72.9401 54.9399 71.7901C55.4399 70.7701 55.8399 69.9701 55.8399 68.2101C55.8399 66.4501 55.4399 65.6301 54.9699 64.6801L57.6599 63.3501C58.1899 64.4201 58.8399 65.7401 58.8399 68.2101C58.8399 70.6801 58.1999 71.9701 57.6299 73.1201C57.1099 74.1701 56.6699 75.0701 56.6699 77.0001C56.6699 78.9301 57.1199 79.8301 57.6299 80.8801L54.9799 82.2901V82.2801Z" fill="#1D1D1B"/>
<path d="M43.0105 82.2198C42.4105 80.9898 41.7305 79.6198 41.7305 76.9898C41.7305 74.3598 42.4405 72.9298 43.0005 71.7798C43.5005 70.7598 43.9005 69.9598 43.9005 68.1998C43.9005 66.4398 43.5005 65.6198 43.0305 64.6698L45.7205 63.3398C46.2505 64.4098 46.9005 65.7298 46.9005 68.1998C46.9005 70.6698 46.2605 71.9598 45.6905 73.1098C45.1705 74.1598 44.7305 75.0598 44.7305 76.9898C44.7305 78.9198 45.1805 79.8198 45.6905 80.8698L43.0105 82.2198Z" fill="#1D1D1B"/>
<path d="M66.8604 82.1598C66.2904 80.9998 65.6104 79.6298 65.6104 76.9898C65.6104 74.3498 66.3203 72.9298 66.8803 71.7798C67.3803 70.7598 67.7803 69.9598 67.7803 68.1998C67.7803 66.4398 67.3804 65.6198 66.9104 64.6698L69.6003 63.3398C70.1303 64.4098 70.7803 65.7298 70.7803 68.1998C70.7803 70.6698 70.1404 71.9598 69.5704 73.1098C69.0504 74.1598 68.6104 75.0598 68.6104 76.9898C68.6104 78.9198 69.0604 79.8298 69.5704 80.8698L68.2304 81.5398L66.8604 82.1498V82.1598Z" fill="#1D1D1B"/>
<path d="M82.3597 60.7501L82.9497 57.8101C77.0807 56.6271 71.0937 55.8601 65.0697 55.4881V33.6431C65.0697 32.1331 63.8397 30.9131 62.3397 30.9131H51.0597C49.5497 30.9131 48.3297 32.1431 48.3297 33.6431V55.4931C48.3297 55.4951 48.3297 55.4971 48.3297 55.4971C42.3007 55.8751 36.3067 56.6501 30.4297 57.8401L31.0297 60.7801V60.7701C39.2027 59.1151 47.6047 58.2701 56.0127 58.2221H57.4347C65.8257 58.2661 74.2077 59.1031 82.3597 60.7501ZM51.3297 33.9121H62.0697V55.2221H51.3297V33.9121Z" fill="#1D1D1B"/>
</svg>
