<svg width="114" height="114" viewBox="0 0 114 114" fill="none" xmlns="http://www.w3.org/2000/svg">
<path d="M39.3898 55.33C35.4798 55.33 32.2998 52.01 32.2998 47.93C32.2998 43.85 35.4798 40.53 39.3898 40.53C43.2998 40.53 46.4798 43.85 46.4798 47.93C46.4798 52.01 43.2998 55.33 39.3898 55.33ZM39.3898 43.54C37.1298 43.54 35.2998 45.51 35.2998 47.94C35.2998 50.37 37.1398 52.34 39.3898 52.34C41.6398 52.34 43.4798 50.37 43.4798 47.94C43.4798 45.51 41.6398 43.54 39.3898 43.54Z" fill="#1D1D1B"/>
<path d="M39.05 73.8601C35.14 73.8601 31.96 70.5401 31.96 66.4601C31.96 62.3801 35.14 59.0601 39.05 59.0601C42.96 59.0601 46.14 62.3801 46.14 66.4601C46.14 70.5401 42.96 73.8601 39.05 73.8601ZM39.05 62.0701C36.79 62.0701 34.96 64.0401 34.96 66.4701C34.96 68.9001 36.8 70.8701 39.05 70.8701C41.3 70.8701 43.14 68.9001 43.14 66.4701C43.14 64.0401 41.3 62.0701 39.05 62.0701Z" fill="#1D1D1B"/>
<path d="M73.0396 73.8601C68.9597 73.8601 65.6396 70.5401 65.6396 66.4601C65.6396 62.3801 68.9597 59.0601 73.0396 59.0601C77.1196 59.0601 80.4397 62.3801 80.4397 66.4601C80.4397 70.5401 77.1196 73.8601 73.0396 73.8601ZM73.0396 62.0701C70.6196 62.0701 68.6396 64.0401 68.6396 66.4701C68.6396 68.9001 70.6096 70.8701 73.0396 70.8701C75.4697 70.8701 77.4397 68.9001 77.4397 66.4701C77.4397 64.0401 75.4697 62.0701 73.0396 62.0701Z" fill="#1D1D1B"/>
<path d="M85.9895 80.7601H27.3995C25.9495 80.7601 24.7695 79.5801 24.7695 78.1301V35.2501C24.7695 33.8001 25.9495 32.6201 27.3995 32.6201H85.9895C87.4395 32.6201 88.6195 33.8001 88.6195 35.2501V78.1301C88.6195 79.5801 87.4395 80.7601 85.9895 80.7601ZM27.7695 77.7601H85.6095V35.6301H27.7695V77.7601Z" fill="#1D1D1B"/>
<path d="M73.4296 55.6799H59.0696C55.2096 55.6799 52.0596 52.5399 52.0596 48.6699V47.4299C52.0596 43.5699 55.1996 40.4199 59.0696 40.4199H73.4296C77.2896 40.4199 80.4396 43.5599 80.4396 47.4299V48.6699C80.4396 52.5299 77.2996 55.6799 73.4296 55.6799ZM59.0696 43.4299C56.8596 43.4299 55.0596 45.2299 55.0596 47.4399V48.6799C55.0596 50.8899 56.8596 52.6899 59.0696 52.6899H73.4296C75.6396 52.6899 77.4396 50.8899 77.4396 48.6799V47.4399C77.4396 45.2299 75.6396 43.4299 73.4296 43.4299H59.0696Z" fill="#1D1D1B"/>
</svg>
