<svg width="114" height="114" viewBox="0 0 114 114" fill="none" xmlns="http://www.w3.org/2000/svg">
<path d="M86.5804 25.8401H61.1203V33.7601C61.1203 34.6901 61.5704 35.5601 62.3404 36.0801C63.1104 36.6101 64.0904 36.7201 64.9704 36.3801C65.5704 36.1501 65.8503 36.1301 65.9203 36.1301C66.9103 36.1301 67.7204 36.9401 67.7204 37.9301C67.7204 38.9201 66.9103 39.7301 65.9203 39.7301C65.8203 39.7301 65.5403 39.7101 64.9903 39.4901C64.1103 39.1401 63.1303 39.2401 62.3503 39.7701C61.5703 40.2901 61.1104 41.1601 61.1104 42.1001V51.2901H70.0603C69.8103 51.9601 69.6904 52.5501 69.6904 53.0901C69.6904 55.7301 71.8403 57.8901 74.4903 57.8901L74.5203 57.9001C77.1703 57.9001 79.3204 55.7501 79.3204 53.1001C79.3204 52.5701 79.2004 51.9601 78.9604 51.3001H86.5804V25.8401ZM83.5504 48.2801H78.6604C77.7204 48.2801 76.8504 48.7401 76.3304 49.5101C75.8104 50.2801 75.7004 51.2701 76.0404 52.1401C76.2604 52.6901 76.2803 52.9901 76.2803 53.0901C76.2803 54.0801 75.4704 54.8901 74.4804 54.8901C73.4904 54.8901 72.6804 54.0801 72.6804 53.0901C72.6804 53.0001 72.7003 52.7201 72.9203 52.1601C73.2703 51.2801 73.1603 50.2901 72.6303 49.5101C72.1103 48.7401 71.2403 48.2801 70.3103 48.2801V48.2701H64.0903V42.3401C64.7603 42.5901 65.3504 42.7101 65.8904 42.7101C68.5404 42.7101 70.6904 40.5501 70.6904 37.9101C70.6904 35.2701 68.5404 33.1101 65.8904 33.1101C65.3704 33.1101 64.7803 33.2301 64.0903 33.4801V28.8201H83.5504V48.2801Z" fill="#1D1D1B"/>
<path d="M64.5701 63.3201C64.0401 64.1001 63.9301 65.0901 64.2701 65.9701C64.4801 66.5201 64.5001 66.8101 64.5001 66.9101C64.5001 67.9001 63.6901 68.7101 62.7001 68.7101C61.7101 68.7101 60.9001 67.9001 60.9001 66.9101C60.9001 66.8201 60.9201 66.5401 61.1401 65.9801C61.4901 65.1001 61.3801 64.1101 60.8501 63.3301C60.3301 62.5601 59.4601 62.1001 58.5301 62.1001H52.2901V56.1501C52.9601 56.4001 53.5501 56.5201 54.0901 56.5201C56.7401 56.5201 58.8901 54.3601 58.8901 51.7201C58.8901 49.0801 56.7401 46.9201 54.0901 46.9201C53.5701 46.9201 52.9801 47.0401 52.2901 47.2901V39.6301H26.8301V63.6001V65.0901V87.5601H50.7901H52.2901H74.7501H74.7801V62.1001H66.8901C65.9601 62.1001 65.0901 62.5501 64.5701 63.3201ZM29.8301 42.6501H49.2901V47.5701C49.2901 48.5001 49.7401 49.3701 50.5101 49.8901C51.2801 50.4201 52.2601 50.5301 53.1401 50.1901C53.7401 49.9601 54.0201 49.9401 54.0901 49.9401C55.0801 49.9401 55.8901 50.7501 55.8901 51.7401C55.8901 52.7301 55.0801 53.5401 54.0901 53.5401C54.0001 53.5401 53.7201 53.5201 53.1801 53.3001C52.2901 52.9501 51.3001 53.0601 50.5201 53.5901C49.7501 54.1101 49.2901 54.9801 49.2901 55.9101V62.1001H43.3501L43.3401 62.1101C43.5801 61.4501 43.7001 60.8501 43.7001 60.3101C43.7001 57.6701 41.5501 55.5101 38.9001 55.5101C36.2501 55.5101 34.1001 57.6601 34.1001 60.3101C34.1001 60.8401 34.2101 61.4401 34.4601 62.1101H29.8301V42.6501ZM49.2901 84.5601H29.8301V65.0901H34.7301C35.6601 65.0901 36.5401 64.6301 37.0601 63.8601C37.5901 63.0801 37.6901 62.1001 37.3501 61.2301C37.1201 60.6701 37.1001 60.3901 37.1001 60.2901C37.1001 59.3001 37.9101 58.4901 38.9001 58.4901C39.8901 58.4901 40.7001 59.3001 40.7001 60.2901C40.7001 60.3901 40.6801 60.6901 40.4601 61.2401C40.1101 62.1201 40.2201 63.1001 40.7501 63.8701C41.2801 64.6401 42.1501 65.1001 43.0801 65.1001H49.2901V71.0901C48.6101 70.8401 48.0201 70.7201 47.4901 70.7201C44.8401 70.7201 42.6901 72.8801 42.6901 75.5201C42.6901 78.1601 44.8401 80.3201 47.4901 80.3201C48.0301 80.3201 48.6201 80.2001 49.2901 79.9501V84.5601ZM71.7501 65.1001V84.5601H52.2901V79.7001C52.2901 78.7601 51.8301 77.8901 51.0601 77.3701C50.2801 76.8401 49.2801 76.7401 48.4001 77.0901C47.8601 77.3101 47.5801 77.3301 47.4901 77.3301C46.5001 77.3301 45.6901 76.5201 45.6901 75.5301C45.6901 74.5401 46.5001 73.7301 47.4901 73.7301C47.5701 73.7301 47.8401 73.7501 48.4401 73.9801C49.3101 74.3201 50.3001 74.2101 51.0701 73.6801C51.8301 73.1601 52.2901 72.2901 52.2901 71.3601V65.1001H58.2601C58.0101 65.7701 57.8901 66.3601 57.8901 66.9001C57.8901 69.5401 60.0401 71.7001 62.6901 71.7001C65.3401 71.7001 67.4901 69.5501 67.4901 66.9001C67.4901 66.3601 67.3701 65.7701 67.1301 65.1001H71.7501Z" fill="#1D1D1B"/>
</svg>
